<svg width="421" height="421" viewBox="0 0 421 421" fill="none" xmlns="http://www.w3.org/2000/svg">
<rect width="421" height="421" rx="86" fill="url(#paint0_linear)"/>
<path d="M157.36 370.949C186.814 370.949 210.719 346.984 210.719 317.457V263.966H157.36C127.905 263.966 104 287.93 104 317.457C104 346.984 127.905 370.949 157.36 370.949Z" fill="#24CE85"/>
<path d="M104 210.474C104 180.947 127.905 156.983 157.36 156.983H210.719V263.966H157.36C127.905 263.966 104 240.002 104 210.474Z" fill="#A350FA"/>
<path d="M104.001 103.491C104.001 73.9642 127.906 50 157.361 50H210.721V156.983H157.361C127.906 156.983 104.001 133.019 104.001 103.491Z" fill="#EE5530"/>
<path d="M210.719 50H264.079C293.534 50 317.439 73.9642 317.439 103.491C317.439 133.019 293.534 156.983 264.079 156.983H210.719V50Z" fill="#FC7566"/>
<path d="M317.439 210.474C317.439 240.002 293.534 263.966 264.079 263.966C234.625 263.966 210.719 240.002 210.719 210.474C210.719 180.947 234.625 156.983 264.079 156.983C293.534 156.983 317.439 180.947 317.439 210.474Z" fill="#3BB7FB"/>
<defs>
<linearGradient id="paint0_linear" x1="255.5" y1="131.5" x2="81" y2="398" gradientUnits="userSpaceOnUse">
<stop stop-color="#2F3038"/>
<stop offset="1" stop-color="#2F3037"/>
</linearGradient>
</defs>
</svg>
