<svg width="192" height="96" viewBox="0 0 192 96" fill="none" xmlns="http://www.w3.org/2000/svg">
<line x1="98.9499" y1="40.3126" x2="93.6453" y2="56.4328" stroke="#7A7B82" stroke-width="2"/>
<path d="M112 40C112 28.6863 112 23.0294 115.515 19.5147C119.029 16 124.686 16 136 16H152C163.314 16 168.971 16 172.485 19.5147C176 23.0294 176 28.6863 176 40V56C176 67.3137 176 72.9706 172.485 76.4853C168.971 80 163.314 80 152 80H136C124.686 80 119.029 80 115.515 76.4853C112 72.9706 112 67.3137 112 56V40Z" fill="#2C2C2C"/>
<path d="M142 42H144V48H150V50H144V56H142V50H136V48H142V42Z" fill="white"/>
<path fill-rule="evenodd" clip-rule="evenodd" d="M160 32V50H159.971C159.453 58.9234 152.053 66 143 66C133.611 66 126 58.3888 126 49C126 39.9469 133.077 32.5465 142 32.0289V32H160ZM158 49.4434L157.974 49.8842C157.518 57.756 150.987 64 143 64C134.716 64 128 57.2843 128 49C128 41.0126 134.244 34.4822 142.116 34.0256L142.557 34H158V49.4434Z" fill="white"/>
<path d="M16 40C16 28.6863 16 23.0294 19.5147 19.5147C23.0294 16 28.6863 16 40 16H56C67.3137 16 72.9706 16 76.4853 19.5147C80 23.0294 80 28.6863 80 40V56C80 67.3137 80 72.9706 76.4853 76.4853C72.9706 80 67.3137 80 56 80H40C28.6863 80 23.0294 80 19.5147 76.4853C16 72.9706 16 67.3137 16 56V40Z" fill="#2C2C2C"/>
<path d="M41.335 69.1109C45.1373 69.1109 48.2233 66.0174 48.2233 62.2057V55.3004H41.335C37.5327 55.3004 34.4468 58.394 34.4468 62.2057C34.4468 66.0174 37.5327 69.1109 41.335 69.1109Z" fill="#24CE85"/>
<path d="M34.4468 48.3951C34.4468 44.5834 37.5327 41.4899 41.335 41.4899H48.2233V55.3004H41.335C37.5327 55.3004 34.4468 52.2068 34.4468 48.3951Z" fill="#A350FA"/>
<path d="M34.4473 34.5847C34.4473 30.773 37.5332 27.6794 41.3355 27.6794H48.2238V41.4899H41.3355C37.5332 41.4899 34.4473 38.3964 34.4473 34.5847Z" fill="#EE5530"/>
<path d="M48.2236 27.6794H55.1119C58.9142 27.6794 62.0001 30.773 62.0001 34.5847C62.0001 38.3964 58.9142 41.4899 55.1119 41.4899H48.2236V27.6794Z" fill="#FC7566"/>
<path d="M62.0001 48.3951C62.0001 52.2068 58.9142 55.3004 55.1119 55.3004C51.3096 55.3004 48.2236 52.2068 48.2236 48.3951C48.2236 44.5834 51.3096 41.4899 55.1119 41.4899C58.9142 41.4899 62.0001 44.5834 62.0001 48.3951Z" fill="#3BB7FB"/>
</svg>
